<?xml version="1.0" encoding="utf-8"?><svg version="1.1" id="Layer_1" xmlns="http://www.w3.org/2000/svg" xmlns:xlink="http://www.w3.org/1999/xlink" x="0px" y="0px" viewBox="0 0 122.88 110.63" style="enable-background:new 0 0 122.88 110.63" xml:space="preserve"><style type="text/css">.st0{fill-rule:evenodd;clip-rule:evenodd;}</style><g><path class="st0" d="M104.26,0c10.28,0,18.62,8.33,18.62,18.62c0,8.96-6.33,16.44-14.76,18.21c0.02,0.14,0.02,0.28,0.02,0.42v5.3 l7.28-0.96c2.45-0.32,4.7,1.41,5.02,3.86c0.32,2.45-1.41,4.7-3.86,5.02l-51.07,6.71l11.31,45.27h6.25c2.25,0,4.08,1.84,4.08,4.08v0 c0,2.25-1.84,4.08-4.08,4.08H40.41c-2.25,0-4.08-1.84-4.08-4.08v0c0-2.25,1.84-4.08,4.08-4.08h6.22l9.4-44.02L8.66,64.66 c-2.45,0.32-4.7-1.41-5.02-3.86s1.41-4.7,3.86-5.02l7.38-0.97v-5.78c0-0.12,0.01-0.24,0.02-0.36C6.4,46.94,0,39.42,0,30.41 C0,20.13,8.33,11.8,18.62,11.8c10.28,0,18.62,8.33,18.62,18.62c0,9.06-6.48,16.61-15.05,18.27c0.01,0.11,0.02,0.22,0.02,0.33v4.82 l78.65-10.33v-6.26c0-0.11,0.01-0.22,0.02-0.33c-8.65-1.6-15.21-9.19-15.21-18.3C85.65,8.33,93.98,0,104.26,0L104.26,0z M97.29,10.29h9.64c1.6,0,2.84,0.4,3.7,1.19c0.86,0.79,1.29,1.78,1.29,2.95c0,0.98-0.31,1.83-0.92,2.53 c-0.41,0.47-1.01,0.84-1.79,1.12c1.2,0.29,2.08,0.78,2.64,1.48c0.56,0.7,0.85,1.58,0.85,2.64c0,0.86-0.2,1.64-0.6,2.33 c-0.4,0.69-0.95,1.24-1.65,1.64c-0.43,0.25-1.09,0.43-1.96,0.54c-1.16,0.15-1.93,0.23-2.31,0.23h-8.88V10.29L97.29,10.29z M102.47,16.83h2.24c0.8,0,1.37-0.14,1.68-0.41c0.31-0.28,0.47-0.68,0.47-1.2c0-0.48-0.16-0.86-0.47-1.14 c-0.31-0.27-0.87-0.41-1.64-0.41h-2.28V16.83L102.47,16.83z M102.47,23.36h2.62c0.89,0,1.51-0.16,1.88-0.47 c0.36-0.31,0.55-0.73,0.55-1.26c0-0.49-0.18-0.89-0.54-1.19c-0.36-0.3-0.99-0.45-1.9-0.45h-2.61V23.36L102.47,23.36z M21.47,35.27 h-5.83l-0.84,2.74H9.55l6.27-16.65h5.63l6.24,16.65H22.3L21.47,35.27L21.47,35.27z M20.38,31.67l-1.82-5.99l-1.83,5.99H20.38 L20.38,31.67z"/></g></svg>