<svg id="Layer_1" data-name="Layer 1" xmlns="http://www.w3.org/2000/svg" viewBox="0 0 106.58 122.88"><title>psychological</title><path d="M21.56,91.08a1.86,1.86,0,1,1,1.61,3.35,10.09,10.09,0,0,1-5.53.83,18.85,18.85,0,0,1-3.52-.75c.05.48.1.95.16,1.43.18,1.34.42,2.72.73,4.13a1.88,1.88,0,0,1-.23,1.38,14.72,14.72,0,0,0-1.67,5.33,4.33,4.33,0,0,0,1.11,3.48,7.68,7.68,0,0,0,4.06,1.84,29.79,29.79,0,0,0,10.36-.34,65.86,65.86,0,0,0,11.85-3.26,32,32,0,0,0,8.3-4.5c2.18-1.74,3.18-4.59,4-7,.18-.51.35-1,.43-1.2l.25-.67c1.07-2.94,2.93-8,5.34-9.9a1.86,1.86,0,1,1,2.27,3c-1.56,1.2-3.18,5.65-4.12,8.23-.19.53-.15.43-.25.69-.2.54-.31.84-.41,1.14-1,2.91-2.21,6.31-5.23,8.72a35.61,35.61,0,0,1-9.27,5c-.79.31-1.6.6-2.41.87a29.69,29.69,0,0,1-.13,3.65,30,30,0,0,1-.91,5,1.86,1.86,0,0,1-3.6-1,27.26,27.26,0,0,0,.81-4.39c.07-.72.11-1.44.12-2.17-2.19.6-4.37,1.08-6.41,1.45a33.47,33.47,0,0,1-11.7.34,11.24,11.24,0,0,1-6-2.88,7.89,7.89,0,0,1-2.17-6.32,17.58,17.58,0,0,1,1.84-6.3c-.25-1.23-.47-2.5-.64-3.82-.19-1.47-.32-3-.38-4.45a.81.81,0,0,1,0-.15l0-.19c-.27-2.81-.3-5.55-.34-8.32V82.7l-4.3-.25h0a5.76,5.76,0,0,1-3-.92,5.34,5.34,0,0,1-1.9-2.15,6.74,6.74,0,0,1-.61-3,9.4,9.4,0,0,1,1.62-4.85l4.6-9.41c2.26-4.61,2.23-5.22,2.14-7.64,0-1.09-.1-2.48,0-4.57a34.89,34.89,0,0,1,.9-7.09,23.89,23.89,0,0,1,1.55-4.5L2.41,34.71a1.86,1.86,0,0,1-1-2.45,3.07,3.07,0,0,1,.2-.36h0c20-27.26,42.58-34.75,61.69-31A52.88,52.88,0,0,1,92,17.4a55.62,55.62,0,0,1,14.15,29.51C108.6,64.81,101.41,84,79.28,97a1.68,1.68,0,0,1-.6.22,67.73,67.73,0,0,0,.49,7.91,61.56,61.56,0,0,0,3.48,14.27,1.86,1.86,0,0,1-3.49,1.31,64.92,64.92,0,0,1-3.7-15.13,76,76,0,0,1-.08-17,1.86,1.86,0,1,1,3.7.38c-.14,1.36-.24,2.7-.31,4,19.53-12,25.89-29.36,23.65-45.51a51.81,51.81,0,0,0-13.2-27.5A49.28,49.28,0,0,0,62.63,4.56c-17.37-3.41-38,3.33-56.58,27.68l8,3.47A1.85,1.85,0,0,1,15,38.42a18.62,18.62,0,0,0-2.12,5.31,31.76,31.76,0,0,0-.8,6.34c-.06,2,0,3.28,0,4.31.13,3.16.16,3.95-2.51,9.42L4.93,73.24a1.91,1.91,0,0,1-.15.28,5.85,5.85,0,0,0-1.08,3,2.51,2.51,0,0,0,.23,1.18,1.64,1.64,0,0,0,.59.68,2.1,2.1,0,0,0,1.06.32h.15l5.33.31a1.61,1.61,0,0,1,.54-.09h.19l4.91.42A1.86,1.86,0,1,1,16.39,83h-.1l-2.77-.16v.38c0,2.42.06,4.81.26,7.22A17.41,17.41,0,0,0,18,91.54a6.34,6.34,0,0,0,3.56-.46ZM68.91,34.39a5.41,5.41,0,0,1,1.76.29,7,7,0,0,1,3,2.12,6.79,6.79,0,0,1,1.59,3.63,6.45,6.45,0,0,1-.09,2,8,8,0,0,1,1.52,1.84,6.23,6.23,0,0,1,.87,3.32A5.91,5.91,0,0,1,76.41,51l0,.05a8.53,8.53,0,0,1-2,1.83,7.5,7.5,0,0,1-1.29,4.61,6,6,0,0,1-3.77,2.59,5.92,5.92,0,0,1-6.93,4.1,4.81,4.81,0,0,1-3-2.44A5.17,5.17,0,0,1,56,64.26a5.36,5.36,0,0,1-4.37-1.1,5.29,5.29,0,0,1-2-3,5.38,5.38,0,0,1-1.48-.28,7,7,0,0,1-3-2.06,6.84,6.84,0,0,1-1.63-3.51,6.43,6.43,0,0,1,.07-2.18,7.71,7.71,0,0,1-1.38-1.65,6.22,6.22,0,0,1-1-3.37,6,6,0,0,1,1.22-3.54,8.33,8.33,0,0,1,1.92-1.86V41a7.42,7.42,0,0,1,1.65-4.44,5.84,5.84,0,0,1,3.58-2.15,6.13,6.13,0,0,1,.18-.61A5.58,5.58,0,0,1,52.31,31,5.29,5.29,0,0,1,56,30.36a5.14,5.14,0,0,1,3.28,2.33,5.09,5.09,0,0,1,3.28-2.33,5.18,5.18,0,0,1,3.42.49,5.66,5.66,0,0,1,2.43,2.34,5.16,5.16,0,0,1,.47,1.2Zm-8.22.82v23a1.07,1.07,0,0,1,.21.5c.33,2,1.18,2.93,2.14,3.19a3.31,3.31,0,0,0,2.72-.63A3,3,0,0,0,67.13,59c0-1-.73-2.14-2.71-3.15a1.18,1.18,0,1,1,1.08-2.1c2.2,1.13,3.37,2.51,3.79,3.91a3.84,3.84,0,0,0,1.89-1.5A5.26,5.26,0,0,0,72,52.49v-.08a1.18,1.18,0,0,1,.57-1.17,6.43,6.43,0,0,0,1.91-1.63l0,0a3.68,3.68,0,0,0,.75-2.07,3.83,3.83,0,0,0-.57-2.06,5.6,5.6,0,0,0-1.47-1.62,1.19,1.19,0,0,1-.46-1.36A4.17,4.17,0,0,0,73,40.69a4.53,4.53,0,0,0-1-2.37,4.61,4.61,0,0,0-2-1.4,3.11,3.11,0,0,0-1.07-.17,5.29,5.29,0,0,1-1.08,2A1.17,1.17,0,1,1,66,37.19a2.49,2.49,0,0,0,.41-2.88A3.36,3.36,0,0,0,64.94,33a2.91,2.91,0,0,0-1.87-.28,3.48,3.48,0,0,0-2.38,2.54Zm5.57,7.6a1.19,1.19,0,0,1,1.39-1.92c.21.16.43.33.65.53a7.47,7.47,0,0,1,2.46,5,8,8,0,0,1-1.51,5.29l-.06.07c-.17.22-.33.42-.49.6A1.18,1.18,0,1,1,67,50.76l.39-.48a5.56,5.56,0,0,0,1.06-3.71,5.12,5.12,0,0,0-1.68-3.4,5,5,0,0,0-.46-.36Zm-7.93-6.43,0-.06h0v0h0v0h0v0h0v0c-.53-2.13-1.55-3.11-2.61-3.33a3,3,0,0,0-2.06.38,3.18,3.18,0,0,0-1.39,1.6,2.68,2.68,0,0,0,1,3,1.18,1.18,0,0,1-1.6,1.73,5.87,5.87,0,0,1-1.68-2.52,3.65,3.65,0,0,0-1.85,1.27,5.11,5.11,0,0,0-1.12,3,5.93,5.93,0,0,0,0,.93,1.2,1.2,0,0,1-.54,1.24,6.78,6.78,0,0,0-1.88,1.65,3.76,3.76,0,0,0-.77,2.18,4,4,0,0,0,.63,2.11,5.47,5.47,0,0,0,1.37,1.48,1.19,1.19,0,0,1,.45,1.35A4,4,0,0,0,45.94,54,4.43,4.43,0,0,0,47,56.25a4.59,4.59,0,0,0,2,1.36,3.8,3.8,0,0,0,.84.17,7.18,7.18,0,0,1,3.94-4.05,1.18,1.18,0,1,1,1.07,2.1C52.73,56.9,52,58.12,52,59.17a2.79,2.79,0,0,0,1.16,2.14,3,3,0,0,0,2.44.64c1.06-.22,2.09-1.2,2.61-3.35a1.19,1.19,0,0,1,.17-.36V36.38Zm-8.25,5.27a1.18,1.18,0,1,1,1.65,1.68,5.11,5.11,0,0,0-1.53,3.45,5.59,5.59,0,0,0,1.26,3.73A1.18,1.18,0,0,1,49.62,52a7.92,7.92,0,0,1-1.77-5.3,7.39,7.39,0,0,1,2.23-5ZM33,28.41l-.19.28c-.23.33-.46.67-.66,1s-.43.71-.64,1.09h0a32.3,32.3,0,0,0-3.37,8.89,31.24,31.24,0,0,0-.6,9.45,31.88,31.88,0,0,0,.76,4.66,30.73,30.73,0,0,0,1.47,4.47,30.39,30.39,0,0,0,2.12,4.18,31.61,31.61,0,0,0,2.75,3.83c.38.45.77.89,1.15,1.3s.76.81,1.18,1.21.83.81,1.24,1.17.83.72,1.27,1.07a32.79,32.79,0,0,0,6.63,4.14,31.33,31.33,0,0,0,3.61,1.41,30.08,30.08,0,0,0,3.71.94l.13,0V73.38h-.09a28.17,28.17,0,0,1-3-.86,27.4,27.4,0,0,1-2.91-1.19l0,0a26.54,26.54,0,0,1-2.8-1.56,29.1,29.1,0,0,1-2.64-1.89c-.4-.32-.79-.65-1.15-1s-.74-.67-1.09-1-.71-.71-1-1.07-.67-.74-1-1.11l0,0a25.94,25.94,0,0,1-4.21-6.92,27.47,27.47,0,0,1-1.27-3.88,26.72,26.72,0,0,1-.71-8.18,25.89,25.89,0,0,1,.57-4.11,27.53,27.53,0,0,1,1.18-4,27.85,27.85,0,0,1,1.76-3.76c.21-.38.41-.72.6-1l.62-.93a.73.73,0,0,1,.56-.31.72.72,0,0,1,.74.69c.07,1.79.07,3.72.2,5.49a2,2,0,0,0,.19.78,2,2,0,0,0,.42.6l0,0a2,2,0,0,0,.67.41,2,2,0,0,0,.73.13H40a2.15,2.15,0,0,0,1.35-.61l0,0a2.07,2.07,0,0,0,.54-1.45l-.21-6.21-.24-6.2a2.23,2.23,0,0,0-.18-.78,2.4,2.4,0,0,0-.43-.61l0,0a2,2,0,0,0-1.43-.54c-3.41.13-8.68,1.21-12.25,1.71a2,2,0,0,0-.75.26,1.91,1.91,0,0,0-.6.53,1.79,1.79,0,0,0-.35.72,1.9,1.9,0,0,0-.05.79,2.14,2.14,0,0,0,.26.76,2.12,2.12,0,0,0,1.25,1,2.09,2.09,0,0,0,.79,0l4.66-.66a.7.7,0,0,1,.5.12.71.71,0,0,1,.19,1Zm34.64,48.4a31,31,0,0,0,3.27-1.17,31.4,31.4,0,0,0,3.14-1.54,35.07,35.07,0,0,0,3-1.89l.11-.07L74.2,69.21l-.07.05c-.77.52-1.54,1-2.33,1.43s-1.6.82-2.43,1.18-1.69.66-2.54.92-1.69.48-2.55.66l-.12,0v4.15l.13,0a32.13,32.13,0,0,0,3.36-.79Zm19-15.2a32.92,32.92,0,0,0,1.52-3.1l0,0a32,32,0,0,0,1.17-3.28,30,30,0,0,0,.79-3.4l0-.13H86l0,.09c-.18.88-.4,1.75-.67,2.63a24.61,24.61,0,0,1-.92,2.53,26.45,26.45,0,0,1-1.2,2.45,25.35,25.35,0,0,1-1.42,2.29l0,.08,2.92,2.93.08-.11a31.23,31.23,0,0,0,1.9-2.94Zm3.13-22c-.1-.45-.22-.9-.34-1.33s-.25-.86-.4-1.32-.3-.91-.45-1.31c-.24-.64-.51-1.3-.81-2s-.58-1.27-.91-1.92-.67-1.26-1-1.83-.71-1.16-1.1-1.75l-.08-.11L81.72,31l0,.07c.28.45.56.91.83,1.38l0,0c.26.47.53,1,.78,1.48s.48,1,.7,1.53.45,1.07.64,1.58.44,1.27.65,1.94.36,1.35.51,2.06h4.15l0-.13c-.08-.43-.17-.87-.28-1.34ZM74.92,18.86c-.76-.44-1.57-.85-2.4-1.23s-1.64-.71-2.49-1h0c-.85-.29-1.73-.56-2.62-.77l-1.2-.27a30.74,30.74,0,0,0-3.58-.46c-.41,0-.82,0-1.2,0H60.14l-1.24.06h0l-1.27.11a2.12,2.12,0,0,0-.76.24,2,2,0,0,0-.61.51,2.1,2.1,0,0,0-.37.69v0A2.1,2.1,0,0,0,56,18.21l0,0a2.07,2.07,0,0,0,.52.62,2.11,2.11,0,0,0,.68.36h0a2,2,0,0,0,.75.07l1.14-.1c.34,0,.7,0,1.07-.05h1.06c.73,0,1.36.07,2.08.13s1.35.19,2,.31l1,.22c.72.18,1.42.38,2.1.61s1.37.5,2,.78,1.3.61,1.94,1,1.22.71,1.8,1.1l.12.08,2.93-2.94-.11-.07c-.74-.53-1.5-1-2.28-1.48Zm9.25,18.72h0Z"/></svg>